<svg xmlns="http://www.w3.org/2000/svg" fill="none" viewBox="5.38 45 885.55 137.73">
<path d="M38.7813 45L66.207 91.3516H67.2695L94.8281 45H127.301L85.7969 113L128.23 181H95.1602L67.2695 134.582H66.207L38.3164 181H5.37891L47.9453 113L6.17578 45H38.7813ZM187.637 181H156.825L203.774 45H240.829L287.712 181H256.899L222.833 76.0781H221.77L187.637 181ZM185.712 127.543H258.493V149.988H185.712V127.543ZM322.781 181V45H376.437C386.752 45 395.54 46.97 402.8 50.9102C410.061 54.806 415.595 60.2292 419.402 67.1797C423.254 74.0859 425.179 82.0547 425.179 91.0859C425.179 100.117 423.231 108.086 419.336 114.992C415.44 121.898 409.795 127.277 402.402 131.129C395.053 134.98 386.155 136.906 375.707 136.906H341.507V113.863H371.058C376.592 113.863 381.152 112.911 384.738 111.008C388.368 109.06 391.069 106.382 392.839 102.973C394.655 99.5195 395.562 95.5573 395.562 91.0859C395.562 86.5703 394.655 82.6302 392.839 79.2656C391.069 75.8568 388.368 73.2227 384.738 71.3633C381.108 69.4596 376.504 68.5078 370.925 68.5078H351.535V181H322.781ZM462.556 181V45H516.212C526.527 45 535.315 46.97 542.576 50.9102C549.836 54.806 555.37 60.2292 559.177 67.1797C563.029 74.0859 564.955 82.0547 564.955 91.0859C564.955 100.117 563.007 108.086 559.111 114.992C555.215 121.898 549.57 127.277 542.177 131.129C534.828 134.98 525.93 136.906 515.482 136.906H481.283V113.863H510.833C516.367 113.863 520.927 112.911 524.513 111.008C528.143 109.06 530.844 106.382 532.615 102.973C534.43 99.5195 535.337 95.5573 535.337 91.0859C535.337 86.5703 534.43 82.6302 532.615 79.2656C530.844 75.8568 528.143 73.2227 524.513 71.3633C520.883 69.4596 516.279 68.5078 510.701 68.5078H491.31V181H462.556ZM611.944 182.727C607.561 182.727 603.798 181.177 600.654 178.078C597.556 174.935 596.006 171.172 596.006 166.789C596.006 162.451 597.556 158.732 600.654 155.633C603.798 152.534 607.561 150.984 611.944 150.984C616.194 150.984 619.912 152.534 623.1 155.633C626.287 158.732 627.881 162.451 627.881 166.789C627.881 169.711 627.128 172.389 625.623 174.824C624.162 177.215 622.237 179.141 619.846 180.602C617.455 182.018 614.821 182.727 611.944 182.727Z" fill="black"/>
<path d="M689.039 181V175.692L722.465 129.995V129.506H690.469V123.182H731.085V128.715L698.261 174.187V174.676H732.29V181H689.039ZM768.774 182.205C763.379 182.205 758.711 180.95 754.771 178.44C750.832 175.906 747.783 172.405 745.624 167.938C743.491 163.446 742.425 158.277 742.425 152.43C742.425 146.608 743.491 141.438 745.624 136.921C747.783 132.379 750.756 128.828 754.546 126.268C758.36 123.684 762.764 122.391 767.758 122.391C770.895 122.391 773.919 122.969 776.83 124.123C779.741 125.252 782.351 126.996 784.659 129.355C786.993 131.689 788.838 134.638 790.193 138.201C791.548 141.739 792.225 145.93 792.225 150.773V154.086H747.055V148.176H785.374C785.374 144.462 784.622 141.125 783.116 138.163C781.635 135.177 779.565 132.818 776.905 131.087C774.27 129.355 771.221 128.489 767.758 128.489C764.094 128.489 760.869 129.468 758.084 131.425C755.298 133.383 753.115 135.968 751.534 139.18C749.978 142.392 749.188 145.905 749.163 149.719V153.258C749.163 157.85 749.953 161.865 751.534 165.303C753.14 168.716 755.411 171.364 758.347 173.246C761.284 175.128 764.759 176.069 768.774 176.069C771.51 176.069 773.906 175.642 775.964 174.789C778.047 173.936 779.791 172.794 781.196 171.364C782.627 169.908 783.706 168.315 784.433 166.583L790.795 168.653C789.917 171.088 788.474 173.334 786.466 175.391C784.484 177.449 781.999 179.105 779.013 180.36C776.052 181.59 772.639 182.205 768.774 182.205ZM806.99 181V123.182H813.502V132.065H813.992C815.146 129.154 817.154 126.808 820.015 125.026C822.9 123.219 826.163 122.316 829.801 122.316C830.354 122.316 830.968 122.329 831.646 122.354C832.324 122.379 832.888 122.404 833.34 122.429V129.242C833.039 129.192 832.512 129.117 831.759 129.016C831.006 128.916 830.19 128.866 829.312 128.866C826.301 128.866 823.616 129.506 821.257 130.786C818.923 132.04 817.078 133.784 815.723 136.018C814.368 138.251 813.691 140.798 813.691 143.659V181H806.99ZM865.486 182.205C860.492 182.205 856.076 180.937 852.236 178.403C848.422 175.868 845.435 172.367 843.277 167.901C841.119 163.409 840.04 158.227 840.04 152.354C840.04 146.432 841.119 141.225 843.277 136.733C845.435 132.216 848.422 128.703 852.236 126.193C856.076 123.659 860.492 122.391 865.486 122.391C870.48 122.391 874.884 123.659 878.699 126.193C882.513 128.728 885.499 132.241 887.657 136.733C889.841 141.225 890.932 146.432 890.932 152.354C890.932 158.227 889.853 163.409 887.695 167.901C885.537 172.367 882.538 175.868 878.699 178.403C874.884 180.937 870.48 182.205 865.486 182.205ZM865.486 176.069C869.501 176.069 872.902 174.99 875.687 172.832C878.473 170.674 880.581 167.8 882.011 164.212C883.467 160.623 884.194 156.671 884.194 152.354C884.194 148.038 883.467 144.073 882.011 140.46C880.581 136.846 878.473 133.947 875.687 131.764C872.902 129.581 869.501 128.489 865.486 128.489C861.496 128.489 858.096 129.581 855.285 131.764C852.5 133.947 850.379 136.846 848.924 140.46C847.493 144.073 846.778 148.038 846.778 152.354C846.778 156.671 847.493 160.623 848.924 164.212C850.379 167.8 852.5 170.674 855.285 172.832C858.071 174.99 861.471 176.069 865.486 176.069Z" fill="black"/>
</svg>