<svg xmlns="http://www.w3.org/2000/svg" fill="none" viewBox="5.38 45 885.55 137.73">
<path d="M38.7813 45L66.207 91.3516H67.2695L94.8281 45H127.301L85.7969 113L128.23 181H95.1602L67.2695 134.582H66.207L38.3164 181H5.37891L47.9453 113L6.17578 45H38.7813ZM187.637 181H156.825L203.774 45H240.829L287.712 181H256.899L222.833 76.0781H221.77L187.637 181ZM185.712 127.543H258.493V149.988H185.712V127.543ZM322.781 181V45H376.437C386.752 45 395.54 46.97 402.8 50.9102C410.061 54.806 415.595 60.2292 419.402 67.1797C423.254 74.0859 425.179 82.0547 425.179 91.0859C425.179 100.117 423.231 108.086 419.336 114.992C415.44 121.898 409.795 127.277 402.402 131.129C395.053 134.98 386.155 136.906 375.707 136.906H341.507V113.863H371.058C376.592 113.863 381.152 112.911 384.738 111.008C388.368 109.06 391.069 106.382 392.839 102.973C394.655 99.5195 395.562 95.5573 395.562 91.0859C395.562 86.5703 394.655 82.6302 392.839 79.2656C391.069 75.8568 388.368 73.2227 384.738 71.3633C381.108 69.4596 376.504 68.5078 370.925 68.5078H351.535V181H322.781ZM462.556 181V45H516.212C526.527 45 535.315 46.97 542.576 50.9102C549.836 54.806 555.37 60.2292 559.177 67.1797C563.029 74.0859 564.955 82.0547 564.955 91.0859C564.955 100.117 563.007 108.086 559.111 114.992C555.215 121.898 549.57 127.277 542.177 131.129C534.828 134.98 525.93 136.906 515.482 136.906H481.283V113.863H510.833C516.367 113.863 520.927 112.911 524.513 111.008C528.143 109.06 530.844 106.382 532.615 102.973C534.43 99.5195 535.337 95.5573 535.337 91.0859C535.337 86.5703 534.43 82.6302 532.615 79.2656C530.844 75.8568 528.143 73.2227 524.513 71.3633C520.883 69.4596 516.279 68.5078 510.701 68.5078H491.31V181H462.556ZM611.944 182.727C607.561 182.727 603.798 181.177 600.654 178.078C597.556 174.935 596.006 171.172 596.006 166.789C596.006 162.451 597.556 158.732 600.654 155.633C603.798 152.534 607.561 150.984 611.944 150.984C616.194 150.984 619.912 152.534 623.1 155.633C626.287 158.732 627.881 162.451 627.881 166.789C627.881 169.711 627.128 172.389 625.623 174.824C624.162 177.215 622.237 179.141 619.846 180.602C617.455 182.018 614.821 182.727 611.944 182.727Z" fill="white"/>
<path d="M689.039 178V172.692L722.465 126.995V126.506H690.469V120.182H731.085V125.715L698.261 171.187V171.676H732.29V178H689.039ZM768.774 179.205C763.379 179.205 758.711 177.95 754.771 175.44C750.832 172.906 747.783 169.405 745.624 164.938C743.491 160.446 742.425 155.277 742.425 149.43C742.425 143.608 743.491 138.438 745.624 133.921C747.783 129.379 750.756 125.828 754.546 123.268C758.36 120.684 762.764 119.391 767.758 119.391C770.895 119.391 773.919 119.969 776.83 121.123C779.741 122.252 782.351 123.996 784.659 126.355C786.993 128.689 788.838 131.638 790.193 135.201C791.548 138.739 792.225 142.93 792.225 147.773V151.086H747.055V145.176H785.374C785.374 141.462 784.622 138.125 783.116 135.163C781.635 132.177 779.565 129.818 776.905 128.087C774.27 126.355 771.221 125.489 767.758 125.489C764.094 125.489 760.869 126.468 758.084 128.425C755.298 130.383 753.115 132.968 751.534 136.18C749.978 139.392 749.188 142.905 749.163 146.719V150.258C749.163 154.85 749.953 158.865 751.534 162.303C753.14 165.716 755.411 168.364 758.347 170.246C761.284 172.128 764.759 173.069 768.774 173.069C771.51 173.069 773.906 172.642 775.964 171.789C778.047 170.936 779.791 169.794 781.196 168.364C782.627 166.908 783.706 165.315 784.433 163.583L790.795 165.653C789.917 168.088 788.474 170.334 786.466 172.391C784.484 174.449 781.999 176.105 779.013 177.36C776.052 178.59 772.639 179.205 768.774 179.205ZM806.99 178V120.182H813.502V129.065H813.992C815.146 126.154 817.154 123.808 820.015 122.026C822.9 120.219 826.163 119.316 829.801 119.316C830.354 119.316 830.968 119.329 831.646 119.354C832.324 119.379 832.888 119.404 833.34 119.429V126.242C833.039 126.192 832.512 126.117 831.759 126.016C831.006 125.916 830.19 125.866 829.312 125.866C826.301 125.866 823.616 126.506 821.257 127.786C818.923 129.04 817.078 130.784 815.723 133.018C814.368 135.251 813.691 137.798 813.691 140.659V178H806.99ZM865.486 179.205C860.492 179.205 856.076 177.937 852.236 175.403C848.422 172.868 845.435 169.367 843.277 164.901C841.119 160.409 840.04 155.227 840.04 149.354C840.04 143.432 841.119 138.225 843.277 133.733C845.435 129.216 848.422 125.703 852.236 123.193C856.076 120.659 860.492 119.391 865.486 119.391C870.48 119.391 874.884 120.659 878.699 123.193C882.513 125.728 885.499 129.241 887.657 133.733C889.841 138.225 890.932 143.432 890.932 149.354C890.932 155.227 889.853 160.409 887.695 164.901C885.537 169.367 882.538 172.868 878.699 175.403C874.884 177.937 870.48 179.205 865.486 179.205ZM865.486 173.069C869.501 173.069 872.902 171.99 875.687 169.832C878.473 167.674 880.581 164.8 882.011 161.212C883.467 157.623 884.194 153.671 884.194 149.354C884.194 145.038 883.467 141.073 882.011 137.46C880.581 133.846 878.473 130.947 875.687 128.764C872.902 126.581 869.501 125.489 865.486 125.489C861.496 125.489 858.096 126.581 855.285 128.764C852.5 130.947 850.379 133.846 848.924 137.46C847.493 141.073 846.778 145.038 846.778 149.354C846.778 153.671 847.493 157.623 848.924 161.212C850.379 164.8 852.5 167.674 855.285 169.832C858.071 171.99 861.471 173.069 865.486 173.069Z" fill="white"/>
</svg>